# xmcd
#
# Track frame offsets:
#	150
#	15097
#	28121
#	40747
#	55049
#	68588
#	81704
#	93925
#	105786
#	119097
#	130398
#	140984
#	153200
#	163778
#	176341
#	188967
#	200892
#	211992
#	225808
#	238580
#	250593
#	261823
#	274093
#	283962
#	294836
#	306284
#	316884
#	329836
#
# Disc length: 4536 seconds
#
# Revision: 1
# Processed by: cddbd v1.5.2PL0 Copyright (c) Steve Scherf et al.
# Submitted via: audiograbber 1.83.01
#
DISCID=9211b61c
DTITLE=Various Artist - Early Vocal Group Harmony - Vol. 1 (1945-1954)
DYEAR=1900
DGENRE=Vocal
TTITLE0=Ministers of Melody with the Carl Bostic Orchestra - From Hopewell Junc
TTITLE0=tion (Co-Ed, ca. 1945)
TTITLE1=Brooks Brothers - Is It Too Late (Decca, 1947)
TTITLE2=Brooks Brothers - The Things You Want the Most of All (Decca, 1947)
TTITLE3=Maggie Hathaway and her Bluesmen - Here Goes a Fool (Black and White, 1947)
TTITLE4=Joe Medlin and the Three Riffs - I'm Glad for Your Sake (Atlantic, 1948)
TTITLE5=Deek Watson and the Four Dots - Strange As It Seems (Castle, 1948)
TTITLE6=Dusty Brooks and the Four Tones - Old Man River (Majestic, 1949)
TTITLE7=Helen Stewart and the Caldwells - I Just Found Out (Rainbow, 1949)
TTITLE8=Helen Stewart and the Caldwells - After My Laughter Came Tears (Rainbow, 
TTITLE8=1949)
TTITLE9=Helen Stewart and the Caldwells - Lovin' Up a Solid Breeze (Rainbow, 1949
TTITLE9=)
TTITLE10=Nellie Hill and the Ben Smith Quartet - Don't Worry Me No More (Abbey, 1
TTITLE10=949)
TTITLE11=Ben Smith Quartet - Memories of You (Coleman, ca. 1950)
TTITLE12=Drifters - And I Shook (Coral, 1950)
TTITLE13=Bachelors - Yesterday's Roses (Mercury, 1950)
TTITLE14=Buddy Williams Orchestra (The Echo-Aires, voc.) - Oh Babe (Rainbow, 19
TTITLE14=50)
TTITLE15=Rhythmasters - Until Now (Bennett, 1950)
TTITLE16=Nellie Hill and the Ben Smith Quintet - When I'm In This Mood (Abbey, 19
TTITLE16=51)
TTITLE17=Brownie McGhee and the Majors - Sleepless Nights (Derby, 1951)
TTITLE18=Drifters - Mobile (Excelsior, 1951)
TTITLE19=Mona Holmes and the Ben Smith Quintet - Love's Misery (Coleman, ca. 1951
TTITLE19=)
TTITLE20=Carnations - Tree In the Meadow (Derby, 1952)
TTITLE21=Dixielanders - Since I Fell For You (Dot, 1952)
TTITLE22=Bluebirds - Can't Help But Sing the Blues (Rainbow, 1952)
TTITLE23=Hollywood Arist-O-Kats - I'll Be Home Again (Recorded in Hollywood, 19
TTITLE23=53)
TTITLE24=Four Hawks - My Baby Please (King, 1953)
TTITLE25=Billy Moore Quartet - That Don't Do Me No Good (MGM, 1954)
TTITLE26=Wally Wilson with the Five Echoes - If You Don't Love Me (Sabre, 1954)
TTITLE27=Clips - Wish I Didn't Love You So (Republic, 1954)
EXTD=
EXTT0=
EXTT1=
EXTT2=
EXTT3=
EXTT4=
EXTT5=
EXTT6=
EXTT7=
EXTT8=
EXTT9=
EXTT10=
EXTT11=
EXTT12=
EXTT13=
EXTT14=
EXTT15=
EXTT16=
EXTT17=
EXTT18=
EXTT19=
EXTT20=
EXTT21=
EXTT22=
EXTT23=
EXTT24=
EXTT25=
EXTT26=
EXTT27=
PLAYORDER=
